<?xml version="1.0" encoding="UTF-8" standalone="no"?>
<!DOCTYPE svg PUBLIC "-//W3C//DTD SVG 1.1//EN"
 "http://www.w3.org/Graphics/SVG/1.1/DTD/svg11.dtd">
<!-- Generated by graphviz version 2.28.0 (20130109.1152)
 -->
<!-- Title: G Pages: 1 -->
<svg width="774pt" height="656pt"
 viewBox="0.00 0.00 774.00 655.82" xmlns="http://www.w3.org/2000/svg" xmlns:xlink="http://www.w3.org/1999/xlink">
<g id="graph1" class="graph" transform="scale(1 1) rotate(0) translate(4 651.821)">
<title>G</title>
<polygon fill="white" stroke="white" points="-4,5 -4,-651.821 771,-651.821 771,5 -4,5"/>
<g id="graph2" class="cluster"><title>cluster_global</title>
<polyline fill="none" stroke="gray" points="236,-81.8212 746,-81.8212 "/>
<path fill="none" stroke="gray" d="M746,-81.8212C752,-81.8212 758,-87.8212 758,-93.8212"/>
<polyline fill="none" stroke="gray" points="758,-93.8212 758,-627.821 "/>
<path fill="none" stroke="gray" d="M758,-627.821C758,-633.821 752,-639.821 746,-639.821"/>
<polyline fill="none" stroke="gray" points="746,-639.821 236,-639.821 "/>
<path fill="none" stroke="gray" d="M236,-639.821C230,-639.821 224,-633.821 224,-627.821"/>
<polyline fill="none" stroke="gray" points="224,-627.821 224,-93.8212 "/>
<path fill="none" stroke="gray" d="M224,-93.8212C224,-87.8212 230,-81.8212 236,-81.8212"/>
<text text-anchor="middle" x="491" y="-627.021" font-family="Times,serif" font-size="11.00" fill="gray">global</text>
</g>
<!-- \\Cizgi_URLDispatcher -->
<g id="node2" class="node"><title>\\Cizgi_URLDispatcher</title>
<a xlink:href="URLDispatcher.html" xlink:title="Cizgi_URLDispatcher" target="_parent">
<polygon fill="none" stroke="black" points="692.5,-611.821 547.5,-611.821 547.5,-575.821 692.5,-575.821 692.5,-611.821"/>
<text text-anchor="middle" x="620" y="-591.021" font-family="Courier,monospace" font-size="11.00">Cizgi_URLDispatcher</text>
</a>
</g>
<!-- \\Cizgi_Class_Not_Found_Exception -->
<g id="node3" class="node"><title>\\Cizgi_Class_Not_Found_Exception</title>
<a xlink:href="autoload.html" xlink:title="Cizgi_Class_Not_Found_Exception" target="_parent">
<polygon fill="none" stroke="black" points="733,-341.821 507,-341.821 507,-305.821 733,-305.821 733,-341.821"/>
<text text-anchor="middle" x="620" y="-321.021" font-family="Courier,monospace" font-size="11.00">Cizgi_Class_Not_Found_Exception</text>
</a>
</g>
<!-- \\RuntimeException -->
<g id="node14" class="node"><title>\\RuntimeException</title>
<ellipse fill="none" stroke="black" cx="80" cy="-323.821" rx="79.0865" ry="18"/>
<text text-anchor="middle" x="80" y="-320.121" font-family="Times,serif" font-size="14.00" fill="gray">\RuntimeException</text>
</g>
<!-- \\Cizgi_Class_Not_Found_Exception&#45;&gt;\\RuntimeException -->
<g id="edge3" class="edge"><title>\\Cizgi_Class_Not_Found_Exception&#45;&gt;\\RuntimeException</title>
<path fill="none" stroke="black" d="M506.872,-323.821C406.693,-323.821 261.896,-323.821 169.619,-323.821"/>
<polygon fill="none" stroke="black" points="169.468,-320.321 159.468,-323.821 169.468,-327.321 169.468,-320.321"/>
</g>
<!-- \\Cizgi_Autoloader -->
<g id="node4" class="node"><title>\\Cizgi_Autoloader</title>
<a xlink:href="Autoloader.html" xlink:title="Cizgi_Autoloader" target="_parent">
<polygon fill="none" stroke="black" points="682.5,-503.821 557.5,-503.821 557.5,-467.821 682.5,-467.821 682.5,-503.821"/>
<text text-anchor="middle" x="620" y="-483.021" font-family="Courier,monospace" font-size="11.00">Cizgi_Autoloader</text>
</a>
</g>
<!-- \\Cizgi_HTML -->
<g id="node5" class="node"><title>\\Cizgi_HTML</title>
<a xlink:href="HTML.html" xlink:title="Cizgi_HTML" target="_parent">
<polygon fill="none" stroke="black" points="662,-449.821 578,-449.821 578,-413.821 662,-413.821 662,-449.821"/>
<text text-anchor="middle" x="620" y="-429.021" font-family="Courier,monospace" font-size="11.00">Cizgi_HTML</text>
</a>
</g>
<!-- \\Cizgi_View -->
<g id="node6" class="node"><title>\\Cizgi_View</title>
<a xlink:href="View.html" xlink:title="Cizgi_View" target="_parent">
<polygon fill="none" stroke="black" points="662,-179.821 578,-179.821 578,-143.821 662,-143.821 662,-179.821"/>
<text text-anchor="middle" x="620" y="-159.021" font-family="Courier,monospace" font-size="11.00">Cizgi_View</text>
</a>
</g>
<!-- \\Smarty -->
<g id="node16" class="node"><title>\\Smarty</title>
<ellipse fill="none" stroke="black" cx="325" cy="-55.8212" rx="38.9931" ry="18"/>
<text text-anchor="middle" x="325" y="-52.1212" font-family="Times,serif" font-size="14.00" fill="gray">\Smarty</text>
</g>
<!-- \\Cizgi_View&#45;&gt;\\Smarty -->
<g id="edge5" class="edge"><title>\\Cizgi_View&#45;&gt;\\Smarty</title>
<path fill="none" stroke="black" d="M577.95,-158.13C551.809,-154.613 517.767,-147.825 490,-134.821 453.039,-117.511 454.712,-95.6539 418,-77.8212 403.957,-71 387.658,-66.2111 372.714,-62.8858"/>
<polygon fill="none" stroke="black" points="373.129,-59.398 362.629,-60.8105 371.718,-66.2543 373.129,-59.398"/>
</g>
<!-- \\Cizgi_View_IllegalVariableException -->
<g id="node7" class="node"><title>\\Cizgi_View_IllegalVariableException</title>
<a xlink:href="View.html" xlink:title="Cizgi_View_IllegalVariableException" target="_parent">
<polygon fill="none" stroke="black" points="746.5,-125.821 493.5,-125.821 493.5,-89.8212 746.5,-89.8212 746.5,-125.821"/>
<text text-anchor="middle" x="620" y="-105.021" font-family="Courier,monospace" font-size="11.00">Cizgi_View_IllegalVariableException</text>
</a>
</g>
<!-- \\Cizgi_View_IllegalVariableException&#45;&gt;\\RuntimeException -->
<g id="edge7" class="edge"><title>\\Cizgi_View_IllegalVariableException&#45;&gt;\\RuntimeException</title>
<path fill="none" stroke="black" d="M591.192,-89.6827C523.066,-47.7491 344.6,46.7409 224,-28.8212 127.998,-88.9714 94.8336,-233.929 84.829,-295.448"/>
<polygon fill="none" stroke="black" points="81.33,-295.175 83.2688,-305.591 88.2486,-296.239 81.33,-295.175"/>
</g>
<!-- \\Cizgi_Controller -->
<g id="node8" class="node"><title>\\Cizgi_Controller</title>
<a xlink:href="Controller.html" xlink:title="«abstract»&lt;br/&gt;Cizgi_Controller" target="_parent">
<polygon fill="none" stroke="black" points="683,-287.821 557,-287.821 557,-251.821 683,-251.821 683,-287.821"/>
<text text-anchor="start" x="586" y="-273.521" font-family="Courier,monospace" font-size="11.00">«abstract»</text>
<text text-anchor="start" x="565.5" y="-262.521" font-family="Courier,monospace" font-size="11.00">Cizgi_Controller</text>
</a>
</g>
<!-- \\Cizgi_Bootstrap -->
<g id="node9" class="node"><title>\\Cizgi_Bootstrap</title>
<a xlink:href="Bootstrap.html" xlink:title="«abstract»&lt;br/&gt;Cizgi_Bootstrap" target="_parent">
<polygon fill="none" stroke="black" points="679.5,-233.821 560.5,-233.821 560.5,-197.821 679.5,-197.821 679.5,-233.821"/>
<text text-anchor="start" x="586" y="-219.521" font-family="Courier,monospace" font-size="11.00">«abstract»</text>
<text text-anchor="start" x="569" y="-208.521" font-family="Courier,monospace" font-size="11.00">Cizgi_Bootstrap</text>
</a>
</g>
<!-- \\Cizgi_Bootstrap_Exception -->
<g id="node10" class="node"><title>\\Cizgi_Bootstrap_Exception</title>
<a xlink:href="Bootstrap.html" xlink:title="Cizgi_Bootstrap_Exception" target="_parent">
<polygon fill="none" stroke="black" points="417.5,-395.821 232.5,-395.821 232.5,-359.821 417.5,-359.821 417.5,-395.821"/>
<text text-anchor="middle" x="325" y="-375.021" font-family="Courier,monospace" font-size="11.00">Cizgi_Bootstrap_Exception</text>
</a>
</g>
<!-- \\Cizgi_Bootstrap_Exception&#45;&gt;\\RuntimeException -->
<g id="edge9" class="edge"><title>\\Cizgi_Bootstrap_Exception&#45;&gt;\\RuntimeException</title>
<path fill="none" stroke="black" d="M241.864,-359.776C235.818,-358.44 229.814,-357.111 224,-355.821 198.788,-350.227 171.085,-344.038 146.831,-338.605"/>
<polygon fill="none" stroke="black" points="147.542,-335.177 137.019,-336.406 146.011,-342.008 147.542,-335.177"/>
</g>
<!-- \\Cizgi_Bootstrap_Controller_Not_Found -->
<g id="node11" class="node"><title>\\Cizgi_Bootstrap_Controller_Not_Found</title>
<a xlink:href="Bootstrap.html" xlink:title="Cizgi_Bootstrap_Controller_Not_Found" target="_parent">
<polygon fill="none" stroke="black" points="750,-557.821 490,-557.821 490,-521.821 750,-521.821 750,-557.821"/>
<text text-anchor="middle" x="620" y="-537.021" font-family="Courier,monospace" font-size="11.00">Cizgi_Bootstrap_Controller_Not_Found</text>
</a>
</g>
<!-- \\Cizgi_Bootstrap_Controller_Not_Found&#45;&gt;\\Cizgi_Bootstrap_Exception -->
<g id="edge11" class="edge"><title>\\Cizgi_Bootstrap_Controller_Not_Found&#45;&gt;\\Cizgi_Bootstrap_Exception</title>
<path fill="none" stroke="black" d="M512.045,-521.718C504.439,-519.136 497.013,-516.188 490,-512.821 432.993,-485.458 378.777,-434.185 349.188,-403.308"/>
<polygon fill="none" stroke="black" points="351.622,-400.788 342.21,-395.924 346.535,-405.596 351.622,-400.788"/>
</g>
<!-- \\Cizgi_Bootstrap_Action_Not_Found -->
<g id="node12" class="node"><title>\\Cizgi_Bootstrap_Action_Not_Found</title>
<a xlink:href="Bootstrap.html" xlink:title="Cizgi_Bootstrap_Action_Not_Found" target="_parent">
<polygon fill="none" stroke="black" points="736.5,-395.821 503.5,-395.821 503.5,-359.821 736.5,-359.821 736.5,-395.821"/>
<text text-anchor="middle" x="620" y="-375.021" font-family="Courier,monospace" font-size="11.00">Cizgi_Bootstrap_Action_Not_Found</text>
</a>
</g>
<!-- \\Cizgi_Bootstrap_Action_Not_Found&#45;&gt;\\Cizgi_Bootstrap_Exception -->
<g id="edge13" class="edge"><title>\\Cizgi_Bootstrap_Action_Not_Found&#45;&gt;\\Cizgi_Bootstrap_Exception</title>
<path fill="none" stroke="black" d="M503.199,-377.821C478.425,-377.821 452.425,-377.821 428.208,-377.821"/>
<polygon fill="none" stroke="black" points="427.947,-374.321 417.947,-377.821 427.947,-381.321 427.947,-374.321"/>
</g>
</g>
</svg>
